<?xml version="1.0" standalone="no"?>
<!DOCTYPE svg PUBLIC "-//W3C//DTD SVG 20010904//EN"
 "http://www.w3.org/TR/2001/REC-SVG-20010904/DTD/svg10.dtd">
<svg version="1.0" xmlns="http://www.w3.org/2000/svg"
 width="256.000000pt" height="256.000000pt" viewBox="0 0 256.000000 256.000000"
 preserveAspectRatio="xMidYMid meet">
<metadata>
Created by potrace 1.11, written by Peter Selinger 2001-2013
</metadata>
<g transform="translate(0.000000,256.000000) scale(0.100000,-0.100000)"
fill="#000000" stroke="none">
<path d="M522 2398 c-6 -6 -12 -9 -12 -6 0 10 -97 -20 -142 -43 -32 -16 -113
-90 -143 -131 -21 -28 -48 -94 -52 -127 -6 -50 -7 -55 -18 -63 -6 -5 -5 -8 2
-8 9 0 10 -7 4 -23 -5 -14 -5 -30 0 -40 6 -9 6 -17 1 -17 -10 0 -9 -36 1 -46
3 -4 2 -16 -4 -27 -8 -15 -8 -18 1 -12 9 6 9 2 1 -14 -8 -14 -8 -21 -1 -21 7
0 8 -6 1 -18 -6 -11 -6 -24 -1 -32 5 -9 5 -19 -2 -27 -7 -9 -7 -13 2 -13 10 0
10 -3 1 -14 -9 -10 -9 -16 -1 -21 8 -5 8 -11 -1 -21 -6 -8 -7 -14 -2 -14 10 0
10 -60 -1 -78 -4 -7 -2 -12 4 -12 7 0 8 -7 3 -17 -10 -21 -9 -65 1 -82 4 -6 3
-11 -2 -11 -7 0 -8 -33 -2 -50 1 -3 1 -9 0 -15 -6 -27 -5 -52 2 -67 6 -12 5
-18 -3 -18 -8 0 -9 -4 0 -13 6 -8 8 -17 5 -20 -10 -10 -11 -50 -2 -69 6 -12 5
-18 -3 -18 -8 0 -8 -4 1 -15 10 -12 10 -15 0 -15 -8 0 -9 -4 -3 -12 11 -15 11
-28 0 -45 -5 -8 -4 -13 3 -13 7 0 8 -7 3 -17 -10 -21 -9 -65 1 -82 4 -6 3 -11
-2 -11 -10 0 -9 -36 1 -46 3 -4 2 -16 -4 -27 -8 -15 -8 -18 1 -12 9 6 9 2 1
-14 -8 -14 -8 -21 -1 -21 7 0 8 -6 1 -18 -6 -11 -6 -24 -1 -32 5 -9 5 -19 -2
-27 -7 -9 -7 -13 2 -13 10 0 10 -3 1 -14 -9 -10 -9 -16 -1 -21 8 -5 8 -11 -1
-21 -6 -8 -7 -14 -2 -14 10 0 7 -69 -2 -78 -2 -3 0 -13 6 -23 7 -14 6 -19 -2
-19 -8 0 -9 -4 0 -13 8 -10 7 -17 -1 -25 -7 -7 -8 -12 -2 -12 5 0 11 -10 11
-22 3 -49 7 -73 15 -79 4 -3 9 -17 10 -31 1 -15 6 -24 10 -22 4 3 8 -2 8 -10
0 -9 5 -16 11 -16 5 0 8 -4 4 -9 -3 -5 5 -17 17 -25 12 -9 19 -16 14 -16 -5 0
1 -8 12 -19 12 -10 19 -21 17 -25 -3 -3 -2 -4 1 -1 11 8 44 -15 44 -30 0 -8 5
-15 11 -15 5 0 7 6 4 13 -4 6 2 2 13 -10 11 -13 32 -23 46 -23 14 0 26 -5 26
-11 0 -5 4 -7 10 -4 5 3 10 1 10 -4 0 -6 5 -11 11 -11 5 0 7 4 4 10 -3 6 1 7
9 4 9 -3 16 -11 16 -18 0 -6 5 -4 10 4 6 10 10 11 10 3 0 -7 5 -13 11 -13 5 0
7 6 3 13 -6 9 -4 9 7 0 17 -17 32 -17 23 -1 -4 7 2 5 13 -5 21 -18 22 -18 32
0 6 10 11 13 11 7 0 -14 48 -15 56 -2 3 5 12 4 20 -3 8 -6 14 -8 14 -3 0 5 5
2 10 -6 8 -13 10 -12 10 3 0 10 4 16 10 12 5 -3 6 -13 3 -23 -4 -11 2 -8 16 8
12 14 20 20 17 14 -7 -15 44 -15 63 0 12 8 13 8 7 -1 -10 -17 16 -17 33 -1 11
10 13 10 7 1 -9 -17 16 -17 33 0 11 9 13 9 7 -1 -9 -15 20 -17 29 -2 4 6 12 7
18 3 18 -12 97 -11 98 1 0 6 4 2 9 -9 5 -11 9 -14 9 -7 1 6 5 12 11 12 5 0 7
-8 4 -17 -3 -10 2 -7 10 7 8 14 15 20 16 13 0 -14 40 -13 40 2 0 5 5 3 10 -5
5 -8 10 -10 10 -5 0 6 5 3 10 -5 6 -10 10 -11 10 -2 0 6 4 12 10 12 5 0 7 -8
3 -17 -4 -12 1 -10 16 7 12 14 20 20 17 14 -7 -15 44 -15 63 0 12 8 13 8 7 -1
-10 -17 16 -17 33 0 11 9 13 9 7 0 -9 -17 16 -17 33 0 11 9 13 9 7 0 -9 -16
16 -17 31 -2 8 8 13 8 17 0 4 -6 12 -11 17 -11 6 0 7 4 4 10 -3 6 1 7 9 4 9
-3 13 -11 9 -18 -3 -6 2 -3 13 6 17 14 21 15 38 2 11 -8 25 -14 30 -14 6 0 5
4 -3 9 -8 5 -9 11 -3 15 6 4 15 -2 21 -11 6 -10 11 -13 11 -6 0 7 6 10 14 7 8
-3 17 0 21 6 5 8 11 8 21 -1 8 -6 14 -8 14 -3 0 5 5 2 10 -6 8 -13 10 -12 10
3 0 10 4 16 10 12 5 -3 6 -13 3 -23 -4 -11 2 -8 16 8 12 14 20 20 17 14 -7
-15 44 -15 63 0 12 8 13 8 7 -1 -10 -17 16 -17 33 0 11 9 13 9 7 0 -9 -17 16
-17 33 0 11 9 13 9 7 0 -9 -16 20 -18 29 -3 4 6 12 7 18 3 18 -12 77 -12 77 0
0 6 6 2 14 -8 13 -18 13 -18 24 1 7 12 12 14 12 5 0 -10 3 -11 13 -2 8 6 17 8
20 4 4 -3 7 -1 7 5 0 8 7 9 26 2 14 -6 23 -7 21 -2 -3 4 1 13 9 20 8 7 14 8
14 2 0 -5 9 -1 20 10 12 12 25 18 30 15 6 -4 10 -1 10 4 0 6 6 10 13 9 6 -2
11 3 9 11 -2 9 3 11 15 7 9 -4 14 -4 10 0 -4 4 11 24 33 45 22 21 40 44 40 52
0 9 5 17 11 19 5 2 11 10 13 18 8 41 19 69 25 65 4 -2 7 6 6 18 -1 12 2 30 7
39 6 12 5 18 -2 18 -6 0 -8 5 -4 12 11 17 11 58 1 58 -4 0 -5 6 -1 12 11 18
11 101 1 115 -5 7 -6 13 -1 13 11 0 11 130 1 147 -4 6 -4 14 0 16 7 5 9 166 3
192 -1 6 -1 12 0 15 6 13 4 170 -2 170 -4 0 -3 12 1 28 4 15 6 89 6 165 -1 91
2 137 9 137 8 0 8 2 0 8 -14 10 -15 153 0 145 6 -3 5 0 -1 8 -16 17 -17 43 -1
33 7 -5 8 -3 2 7 -5 8 -10 25 -12 37 -2 17 1 22 10 16 10 -6 10 -4 2 7 -5 8
-10 56 -10 107 1 50 -2 92 -6 92 -3 0 -5 11 -3 25 1 14 -2 25 -7 25 -6 0 -8 6
-5 14 3 8 2 16 -3 18 -4 2 -10 12 -12 23 -1 11 -5 22 -8 25 -3 3 -20 25 -39
50 -58 76 -146 132 -236 149 -52 10 -430 15 -552 8 -18 -1 -33 1 -33 6 0 4 -5
5 -10 2 -6 -4 -86 -6 -178 -5 -170 0 -189 0 -255 -3 -20 -1 -37 2 -37 6 0 5
-4 5 -10 2 -5 -3 -85 -6 -177 -6 -176 1 -207 1 -260 -2 -18 -1 -34 1 -36 6 -1
4 -8 2 -15 -5z"/>
</g>
</svg>
